<svg xmlns="http://www.w3.org/2000/svg" viewBox="0 0 800 144.10358">
  <title>SmartFinance_Logo_Color</title>
  <g>
    <path d="M72.05174,33.89348a38.15831,38.15831,0,1,0,38.15831,38.15845A38.1584,38.1584,0,0,0,72.05174,33.89348Zm0,58.80866a20.65036,20.65036,0,1,1,18.76963-29.224,10.32525,10.32525,0,1,0,0,17.1474A20.63741,20.63741,0,0,1,72.05174,92.70214Z" transform="translate(0)" style="fill: #79c043"/>
    <path d="M72.05179,129.06462a57.01292,57.01292,0,1,1,40.31426-97.32709l10.634-10.634a72.05179,72.05179,0,1,0,0,101.89658l-10.63419-10.634A56.8345,56.8345,0,0,1,72.05179,129.06462Z" transform="translate(0)" style="fill: #97daf7"/>
    <path d="M132.7887,33.312,121.8211,44.27975a56.86114,56.86114,0,0,1,0,55.54425l10.9676,10.96759a71.97635,71.97635,0,0,0,0-77.47961Z" transform="translate(0)" style="fill: #f9ce32"/>
    <g>
      <path d="M197.57116,111.97348c-8.79541,0-13.98235-1.69049-18.0423-4.284l2.70663-7.21692a25.26749,25.26749,0,0,0,13.532,3.6073c8.90857,0,14.54585-5.75044,14.54585-14.547,0-6.87744-3.83363-11.05055-13.53086-14.88417C183.814,69.46178,180.31868,61.455,180.31868,53.901c0-11.72721,8.34391-21.76392,21.87592-21.76392,7.10376,0,12.517,1.80365,15.90032,4.17311l-2.48147,6.54026a23.69866,23.69866,0,0,0-12.2907-3.60961c-8.23191,0-12.85535,5.41326-12.85535,13.644,0,8.00674,5.8636,11.39,12.96736,14.20983,15.33682,5.97677,17.592,14.99734,17.592,21.87477C221.02672,102.50257,211.21633,111.97348,197.57116,111.97348Z" transform="translate(0)" style="fill: #97daf7"/>
      <path d="M303.44972,110.84649V67.09463c0-6.08992-2.9318-11.61635-11.72721-11.61635a16.09734,16.09734,0,0,0-12.517,5.41326v49.955h-9.92356V66.642c0-6.76428-4.51028-11.27456-13.30569-11.27456a25.28817,25.28817,0,0,0-10.93854,2.02766v53.4514h-9.9224V53.22429c5.52528-2.70663,11.38888-4.28627,21.08611-4.28627,9.36006,0,14.99849,2.81979,18.60695,7.33008,4.172-4.39713,10.37389-7.33008,18.831-7.33008,14.547,0,19.73394,9.47321,19.73394,17.93029v43.97818Z" transform="translate(0)" style="fill: #97daf7"/>
      <path d="M349.44517,111.97348c-15.786,0-23.11608-6.87744-23.11608-17.928,0-16.12664,15.11049-20.86325,33.94146-22.78007V67.545c0-9.36006-5.63728-12.06669-13.41885-12.06669a33.89267,33.89267,0,0,0-14.659,3.83593l-2.36831-5.86591a40.12291,40.12291,0,0,1,18.607-4.51028c11.27571,0,21.19926,4.84977,21.19926,19.73394v39.01756C365.00716,110.283,357.9034,111.97348,349.44517,111.97348Zm10.82538-35.63195c-15.33567,1.91681-24.4694,5.18694-24.4694,17.47764,0,8.79656,5.41327,12.40387,14.43384,12.40387,3.83363,0,7.55525-.67666,10.03556-2.03Z" transform="translate(0)" style="fill: #97daf7"/>
      <path d="M409.4299,56.60758c-4.96293-1.46648-10.60137-1.01614-13.8715,1.127v53.11192H385.636v-57.509c5.97561-3.04612,11.72721-4.62345,26.161-4.28627Z" transform="translate(0)" style="fill: #97daf7"/>
      <path d="M440.43378,111.41c-11.05285,0-15.11049-7.89358-15.11049-15.33451V56.2681h-6.99291V50.06732h6.99291V36.08382L435.24684,33.04V50.06732h10.5979V56.2681h-10.5979V95.84915c0,4.84746,2.14083,8.79425,7.66725,8.79425a13.14078,13.14078,0,0,0,2.93065-.45034v6.31625A17.63527,17.63527,0,0,1,440.43378,111.41Z" transform="translate(0)" style="fill: #97daf7"/>
      <path d="M469.18368,40.25693V67.31864H492.0746v6.87975H469.18368v36.6481H458.80979V33.264h35.85828v6.99291Z" transform="translate(0)" style="fill: #79c043"/>
      <path d="M512.70229,38.34011a5.67048,5.67048,0,0,1-5.86361-5.41326,5.81413,5.81413,0,0,1,11.614,0A5.64065,5.64065,0,0,1,512.70229,38.34011Zm-4.96063,72.50638V50.06732h9.92356v60.77917Z" transform="translate(0)" style="fill: #79c043"/>
      <path d="M568.40536,110.84649V67.20779c0-5.63959-2.36946-11.84036-12.74335-11.84036-5.63728,0-8.34391.78751-11.50088,2.14082v53.33824h-9.92356V53.22429c5.41327-2.59347,12.517-4.28627,22.21426-4.28627,16.91415,0,21.87708,9.36005,21.87708,18.04345v43.865Z" transform="translate(0)" style="fill: #79c043"/>
      <path d="M614.40427,111.97348c-15.78715,0-23.11723-6.87744-23.11723-17.928,0-16.12664,15.11049-20.86325,33.94377-22.78007V67.545c0-9.36006-5.63959-12.06669-13.42-12.06669A33.87793,33.87793,0,0,0,597.153,59.31421l-2.36946-5.86591A40.11874,40.11874,0,0,1,613.39044,48.938c11.27687,0,21.19811,4.84977,21.19811,19.73394v39.01756C629.96511,110.283,622.86135,111.97348,614.40427,111.97348Zm10.82654-35.63195c-15.33682,1.91681-24.47056,5.18694-24.47056,17.47764,0,8.79656,5.41327,12.40387,14.43384,12.40387,3.83363,0,7.5541-.67666,10.03672-2.03Z" transform="translate(0)" style="fill: #79c043"/>
      <path d="M684.76289,110.84649V67.20779c0-5.63959-2.36946-11.84036-12.74335-11.84036-5.63728,0-8.34391.78751-11.50088,2.14082v53.33824h-9.92355V53.22429c5.41326-2.59347,12.517-4.28627,22.21425-4.28627,16.91415,0,21.87708,9.36005,21.87708,18.04345v43.865Z" transform="translate(0)" style="fill: #79c043"/>
      <path d="M731.43846,111.97348c-13.30684,0-23.11723-11.95353-23.11723-31.57431,0-19.958,9.81039-31.46115,23.34356-31.46115,7.44093,0,11.50088,2.36945,13.41769,4.06l-2.36715,5.75044a14.13263,14.13263,0,0,0-9.02057-2.93065c-11.05055,0-15.33682,10.03672-15.33682,24.24423,0,14.547,5.18694,24.58141,14.99734,24.58141a15.2735,15.2735,0,0,0,9.24689-2.93065l2.48031,6.20078C742.71533,110.05667,738.20505,111.97348,731.43846,111.97348Z" transform="translate(0)" style="fill: #79c043"/>
      <path d="M761.768,84.2351c1.127,13.75719,7.5564,20.52146,18.49379,20.52146,6.87744,0,11.84037-1.69049,14.99734-3.49414l2.59347,6.54026c-3.72047,2.254-10.14757,4.1708-18.38063,4.1708-15.90032,0-27.064-10.03441-27.064-31.68516,0-20.63693,10.14988-31.3503,24.47056-31.3503,14.547,0,23.34356,9.47321,23.11724,29.77066Zm14.77332-28.86767c-8.79656,0-15.33682,7.10375-15.11049,23.56757l29.09169-4.39944C790.52252,60.77838,785.22241,55.36743,776.54132,55.36743Z" transform="translate(0)" style="fill: #79c043"/>
    </g>
  </g>
</svg>
